<svg xmlns="http://www.w3.org/2000/svg" viewBox="0 0 106 78" fill="none">
  <path fill="#000000" d="M52.96.1C23.71.1,0,23.61,0,52.62v25.15h9.76v-2.51c0-11.77,9.61-21.31,21.48-21.31s21.48,9.54,21.48,21.31v2.51h9.76v-2.51c0-17.11-13.99-30.98-31.24-30.98-6.72,0-12.94,2.1-18.03,5.69,5.33-10.51,16.31-17.73,28.99-17.73,17.91,0,32.43,14.41,32.43,32.16v13.36h9.76v-13.36c0-23.11-18.89-41.85-42.19-41.85-10.48,0-20.06,3.79-27.44,10.06,7.25-13.59,21.63-22.84,38.21-22.84,23.86,0,43.2,19.18,43.2,42.84v25.15h9.76v-25.15C105.92,23.61,82.21.1,52.96.1Z"/>
</svg>
